<?xml version="1.0" encoding="utf-8"?>
<!-- Generator: Adobe Illustrator 24.3.0, SVG Export Plug-In . SVG Version: 6.00 Build 0)  -->
<svg version="1.1" id="canvas" xmlns:ev="http://www.w3.org/2001/xml-events"
	 xmlns="http://www.w3.org/2000/svg" xmlns:xlink="http://www.w3.org/1999/xlink" x="0px" y="0px" viewBox="0 0 1000 1000"
	 style="enable-background:new 0 0 1000 1000;" xml:space="preserve">
<style type="text/css">
	.st0{font-family:'ArialMT';}
	.st1{font-size:12px;}
	.st2{fill:none;stroke:#75878a;stroke-miterlimit:10;}
	.st3{fill:none;stroke:#dc3023;stroke-miterlimit:10;}
	.st4{fill:#bacac6;stroke:#dc3023;stroke-miterlimit:10;}
</style>
<g id="GRID">
	<rect x="0" y="0" width="1000" height="1000" class="st4"/>
	<rect x="0" y="0" width="10" height="10" class="st4"/>
	<rect x="1000" y="0" width="10" height="10" class="st4"/>
	<rect x="1000" y="1000" width="10" height="10" class="st4"/>
	<rect x="0" y="1000" width="10" height="10" class="st4"/>

	<rect x="543" y="-294" transform="translate(0, 1000)" width="200" height="200" class="st2"/>
	<text x="543" y="-294" transform="translate(0, 1000)" class="st0 st1">100 (54.3, 29.4)</text>
	
	<rect x="123" y="-234" transform="translate(0, 1000)" width="200" height="200" class="st2"/>
	<text x="123" y="-234" transform="translate(0, 1000)" class="st0 st1">101 (12.3, 23.4)</text>
	
	<rect x="245" y="-623" transform="translate(0, 1000)" width="200" height="200" class="st2"/>
	<text x="245" y="-623" transform="translate(0, 1000)" class="st0 st1">106 (24.5, 62.3)</text>
	
	<rect x="355" y="-353" transform="translate(0, 1000)" width="200" height="200" class="st2"/>
	<text x="355" y="-353" transform="translate(0, 1000)" class="st0 st1">107 (35.5, 35.3)</text>
	
	<rect x="425" y="-433" transform="translate(0, 1000)" width="200" height="200" class="st2"/>
	<text x="425" y="-433" transform="translate(0, 1000)" class="st0 st1">108 (42.5, 43.3)</text>
	
	<rect x="215" y="-233" transform="translate(0, 1000)" width="200" height="200" class="st2"/>
	<text x="215" y="-233" transform="translate(0, 1000)" class="st0 st1">109 (21.5, 23.3)</text>
	
	<rect x="255" y="-453" transform="translate(0, 1000)" width="200" height="200" class="st3"/>
	<text x="255" y="-453" transform="translate(0, 1000)" class="st0 st1">201 (25.5, 45.3)</text>
</g>
</svg>
